# xmcd
#
# Track frame offsets:
#	150
#	16467
#	30390
#	46220
#	64302
#	93222
#	110540
#	128225
#	142435
#	159692
#	177562
#
# Disc length: 2610 seconds
#
# Revision: 4
# Processed by: cddbd v1.5.2PL0 Copyright (c) Steve Scherf et al.
# Submitted via: EZCDAudioConverter 7.1.6.1
#
DISCID=9c0a300b
DTITLE=Rascal Flatts
DYEAR=2000
DGENRE=Country
TTITLE0=Prayin' For Daylight
TTITLE1=This Everyday Love
TTITLE2=While You Loved Me
TTITLE3=Some Say
TTITLE4=See Me Through
TTITLE5=One Good Love
TTITLE6=It's Not Just Me
TTITLE7=Waiting All My Life
TTITLE8=From Time To Time
TTITLE9=Long Slow Beautiful Dance
TTITLE10=I'm Movin' On
EXTD=
EXTT0=
EXTT1=
EXTT2=
EXTT3=
EXTT4=
EXTT5=
EXTT6=
EXTT7=
EXTT8=
EXTT9=
EXTT10=
PLAYORDER=
